HIERARCHY
ROOT Hips
{
	OFFSET 0.000000 0.000000 0.000000
	CHANNELS 6 Xposition Yposition Zposition Zrotation Yrotation Xrotation 
	JOINT LowerBack
	{
		OFFSET 0.000000 0.000000 0.000000
		CHANNELS 3 Zrotation Yrotation Xrotation
		JOINT Spine
		{
			OFFSET 0.028270 2.035590 -0.193380
			CHANNELS 3 Zrotation Yrotation Xrotation
			JOINT Spine1
			{
				OFFSET 0.056720 2.048850 -0.042750
				CHANNELS 3 Zrotation Yrotation Xrotation
				JOINT Neck
				{
					OFFSET 0.000000 0.000000 0.000000
					CHANNELS 3 Zrotation Yrotation Xrotation
					JOINT Neck1
					{
						OFFSET -0.054170 1.746240 0.172020
						CHANNELS 3 Zrotation Yrotation Xrotation
						JOINT Head
						{
							OFFSET 0.104070 1.761360 -0.123970
							CHANNELS 3 Zrotation Yrotation Xrotation
							End Site
							{
								OFFSET 0.000000 0.000000 0.000000
							}
						}
					}
				}
				JOINT LeftShoulder
				{
					OFFSET 0.000000 0.000000 0.000000
					CHANNELS 3 Zrotation Yrotation Xrotation
					JOINT LeftArm
					{
						OFFSET 3.362410 1.200890 -0.311210
						CHANNELS 3 Zrotation Yrotation Xrotation
						JOINT LeftForeArm
						{
							OFFSET 4.983000 -0.000000 -0.000000
							CHANNELS 3 Zrotation Yrotation Xrotation
							JOINT LeftHand
							{
								OFFSET 3.483560 -0.000000 -0.000000
								CHANNELS 3 Zrotation Yrotation Xrotation
								JOINT LeftFingerBase
								{
									OFFSET 0.000000 0.000000 0.000000
									CHANNELS 3 Zrotation Yrotation Xrotation
									JOINT LeftHandIndex1
									{
										OFFSET 0.715260 -0.000000 -0.000000
										CHANNELS 3 Zrotation Yrotation Xrotation
										End Site
										{
											OFFSET 0.000000 0.000000 0.000000
										}
									}
								}
								JOINT LThumb
								{
									OFFSET 0.000000 0.000000 0.000000
									CHANNELS 3 Zrotation Yrotation Xrotation
									End Site
									{
										OFFSET 0.000000 0.000000 0.000000
									}
								}
							}
						}
					}
				}
				JOINT RightShoulder
				{
					OFFSET 0.000000 0.000000 0.000000
					CHANNELS 3 Zrotation Yrotation Xrotation
					JOINT RightArm
					{
						OFFSET -3.136600 1.374050 -0.404650
						CHANNELS 3 Zrotation Yrotation Xrotation
						JOINT RightForeArm
						{
							OFFSET -5.241900 -0.000000 -0.000000
							CHANNELS 3 Zrotation Yrotation Xrotation
							JOINT RightHand
							{
								OFFSET -3.444170 -0.000000 -0.000000
								CHANNELS 3 Zrotation Yrotation Xrotation
								JOINT RightFingerBase
								{
									OFFSET 0.000000 0.000000 0.000000
									CHANNELS 3 Zrotation Yrotation Xrotation
									JOINT RightHandIndex1
									{
										OFFSET -0.622530 -0.000000 -0.000000
										CHANNELS 3 Zrotation Yrotation Xrotation
										End Site
										{
											OFFSET 0.000000 0.000000 0.000000
										}
									}
								}
								JOINT RThumb
								{
									OFFSET 0.000000 0.000000 0.000000
									CHANNELS 3 Zrotation Yrotation Xrotation
									End Site
									{
										OFFSET 0.000000 0.000000 0.000000
									}
								}
							}
						}
					}
				}
			}
		}
	}
}
}
MOTION
Frames: 6
Frame Time: 0.008333
3.505770 15.894854 -0.955709 76.625198 -78.933530 -28.458070 -9.516826 -3.100656 2.002927 -2.705589 -2.742291 -2.597845 -5.369308 -2.721395 -0.162166 9.425171 -10.839677 -7.404486 -2.449576 -0.149810 -0.507449 0.000000 0.000000 0.000000 2.982048 5.955008 3.124549 -66.477234 14.485866 -4.719627 -0.351060 -82.687124 -0.012812 3.318826 1.387532 0.035816 -0.090203 0.218679 -0.000000 0.000000 0.000000 0.000000 0.000000 0.000000 0.000000 9.258760 -7.097124 -0.150430 68.429400 17.592436 12.400022 179.499923 80.330741 179.961245 -5.798057 6.462633 -0.364148 0.141229 -0.561678 -0.000000 0.000000 0.000000 0.000000 0.000000 0.000000 0.000000 
3.510316 15.860079 -0.965809 77.498043 -78.818116 -29.320996 -9.597992 -3.076227 2.212446 -2.725527 -2.717957 -2.558215 -5.336307 -2.695492 -0.210488 9.337606 -10.731394 -7.256692 -2.467961 -0.152795 -0.472373 0.000000 0.000000 0.000000 2.865009 5.673984 3.094826 -66.521262 13.970484 -4.507056 -0.351597 -82.654081 -0.013041 3.353815 1.318564 0.033915 -0.089208 0.222514 -0.000000 0.000000 0.000000 0.000000 0.000000 0.000000 0.000000 9.285159 -7.043983 -0.133312 68.545243 17.810206 12.554173 179.521817 80.714399 179.960989 -5.843944 6.517034 -0.369667 0.140708 -0.560288 -0.000000 0.000000 0.000000 0.000000 0.000000 0.000000 0.000000 
3.512417 15.829174 -0.974865 78.422388 -78.713246 -30.243607 -9.668829 -3.040707 2.399562 -2.744917 -2.683060 -2.525498 -5.306031 -2.659624 -0.266732 9.257823 -10.660469 -7.138354 -2.482941 -0.155166 -0.445024 0.000000 0.000000 0.000000 2.765138 5.359437 3.070172 -66.520920 13.482327 -4.289155 -0.350300 -82.654036 -0.013250 3.381996 1.246132 0.031915 -0.088221 0.226487 -0.000000 0.000000 0.000000 0.000000 0.000000 0.000000 0.000000 9.305547 -7.007575 -0.101466 68.651908 17.994495 12.707751 179.540684 81.069120 179.960732 -5.888420 6.572580 -0.375380 0.140496 -0.559454 -0.000000 0.000000 0.000000 0.000000 0.000000 0.000000 0.000000 
3.511910 15.802235 -0.981702 79.345012 -78.625472 -31.155134 -9.709808 -2.998292 2.545455 -2.758288 -2.642059 -2.503937 -5.276708 -2.618562 -0.327963 9.178814 -10.619993 -7.047474 -2.494286 -0.156975 -0.424349 0.000000 0.000000 0.000000 2.676798 5.023322 3.050044 -66.496558 13.032704 -4.080788 -0.346888 -82.691661 -0.013458 3.406611 1.174626 0.029817 -0.087300 0.230584 -0.000000 0.000000 0.000000 0.000000 0.000000 0.000000 0.000000 9.309529 -6.984046 -0.057764 68.739277 18.146319 12.863129 179.556570 81.391282 179.960520 -5.928230 6.627683 -0.380788 0.140553 -0.559066 -0.000000 0.000000 0.000000 0.000000 0.000000 0.000000 0.000000 
3.508918 15.779455 -0.985743 80.247796 -78.559939 -32.033902 -9.711897 -2.953650 2.649297 -2.762685 -2.599587 -2.493196 -5.246382 -2.576889 -0.391450 9.097828 -10.600769 -6.981272 -2.501817 -0.158246 -0.409516 0.000000 0.000000 0.000000 2.601452 4.682065 3.034312 -66.466883 12.625949 -3.896143 -0.341130 -82.769673 -0.013668 3.428272 1.109946 0.027821 -0.086432 0.234807 -0.000000 0.000000 0.000000 0.000000 0.000000 0.000000 0.000000 9.292448 -6.967303 -0.005404 68.801075 18.275871 13.024497 179.569746 81.682047 179.960381 -5.959763 6.681057 -0.385591 0.140792 -0.559005 -0.000000 0.000000 0.000000 0.000000 0.000000 0.000000 0.000000 
3.503409 15.760743 -0.986172 81.095206 -78.525489 -32.843003 -9.662235 -2.910219 2.705437 -2.754336 -2.559050 -2.494022 -5.213891 -2.538047 -0.453964 9.012470 -10.595227 -6.936004 -2.505506 -0.159046 -0.399147 0.000000 0.000000 0.000000 2.537539 4.350029 3.021896 -66.447624 12.268977 -3.744790 -0.332837 -82.891568 -0.013897 3.445498 1.057040 0.026227 -0.085601 0.239104 -0.000000 0.000000 0.000000 0.000000 0.000000 0.000000 0.000000 9.250023 -6.952776 0.052526 68.828285 18.389999 13.196407 179.580250 81.942171 179.960359 -5.979064 6.731243 -0.389588 0.141172 -0.559132 -0.000000 0.000000 0.000000 0.000000 0.000000 0.000000 0.000000 
